# xmcd CD database file
#
# Track frame offsets:
#	150
#	13210
#	26153
#	38836
#	62091
#	76300
#	89130
#	102198
#	136713
#	149852
#	177074
#	193136
#	203510
#	228140
#	239431
#
# Disc length: 3354 seconds
#
# Revision: 0
# Processed by: cddbd v1.5.2PL0 Copyright (c) Steve Scherf et al.
# Submitted via: CDex 1.51
#
DISCID=ce0d180f
DTITLE=Brian Holland - The Finger Buster
DYEAR=2002
DGENRE=Jazz
TTITLE0=Finger Buster
TTITLE1=You Tell 'Em, Ivories
TTITLE2=Mule Walk
TTITLE3=Blue Solace Tango
TTITLE4=Bluin' The Black Keys
TTITLE5=Walleritis
TTITLE6=Carolina Shout
TTITLE7=Fats Waller Medley
TTITLE8=Grace and Beauty
TTITLE9=American Beauty
TTITLE10=Steeplechase Rag (Over the Bars)
TTITLE11=Nickel in the Slot
TTITLE12=Blues for an Entertainer
TTITLE13=Punch
TTITLE14=Fingerbreaker
EXTD=YEAR: 2002
EXTT0=
EXTT1=
EXTT2=
EXTT3=
EXTT4=
EXTT5=
EXTT6=
EXTT7=
EXTT8=
EXTT9=
EXTT10=
EXTT11=
EXTT12=
EXTT13=
EXTT14=
PLAYORDER=
